{"title":"Black.Nativity.2013.CAM.XviD-2LOW [P2PDL]","uid":9389331,"size":1090134765,"categoryP":"video","categoryS":"movies","magnet":"?xt=urn:btih:6fdbb48b99acbbd6e5c0869a731a341261ab3a80&amp;dn=Black.Nativity.2013.CAM.XviD-2LOW+%5BP2PDL%5D&amp;tr=udp%3A%2F%2Ftracker.openbittorrent.com%3A80&amp;tr=udp%3A%2F%2Fopen.demonii.com%3A1337&amp;tr=udp%3A%2F%2Ftracker.coppersurfer.tk%3A6969&amp;tr=udp%3A%2F%2Fexodus.desync.com%3A6969","seeders":2,"leechers":0,"uploader":"ValidusVyto","files":8,"time":1387853414,"description":"Black.Nativity.2013.CAM.XviD-2LOW\n\nInfo:\nGeneral\nComplete name                            : Black.Nativity.2013.CAM.XviD-2LOW/BlackNativity-2LOW.avi\nFormat                                   : AVI\nFormat/Info                              : Audio Video Interleave\nFile size                                : 1 024 MiB\nDuration                                 : 1h 27mn\nOverall bit rate                         : 1 640 Kbps\nWriting library                          : VirtualDub build 32842/release\n\nVideo\nID                                       : 0\nFormat                                   : MPEG-4 Visual\nFormat profile                           : Advanced Simple@L5\nFormat settings, BVOP                    : 2\nFormat settings, QPel                    : No\nFormat settings, GMC                     : No warppoints\nFormat settings, Matrix                  : Default (H.263)\nMuxing mode                              : Packed bitstream\nCodec ID                                 : XVID\nCodec ID/Hint                            : XviD\nDuration                                 : 1h 27mn\nBit rate                                 : 1 404 Kbps\nWidth                                    : 672 pixels\nHeight                                   : 288 pixels\nDisplay aspect ratio                     : 2.35:1\nFrame rate                               : 29.970 fps\nColor space                              : YUV\nChroma subsampling                       : 4:2:0\nBit depth                                : 8 bits\nScan type                                : Progressive\nCompression mode                         : Lossy\nBits/(Pixel*Frame)                       : 0.242\nStream size                              : 876 MiB (86%)\nWriting library                          : XviD 64\n\nAudio\nID                                       : 1\nFormat                                   : MPEG Audio\nFormat version                           : Version 1\nFormat profile                           : Layer 3\nCodec ID                                 : 55\nCodec ID/Hint                            : MP3\nDuration                                 : 1h 27mn\nBit rate mode                            : Constant\nBit rate                                 : 224 Kbps\nChannel(s)                               : 2 channels\nSampling rate                            : 48.0 KHz\nCompression mode                         : Lossy\nDelay relative to video                  : 14ms\nStream size                              : 140 MiB (14%)\nAlignment                                : Split accross interleaves\nInterleave, duration                     : 33 ms (1.00 video frame)\nInterleave, preload duration             : 500 ms\n\n\n","torrent":{"xt":"urn:btih:6fdbb48b99acbbd6e5c0869a731a341261ab3a80","amp;dn":"Black.Nativity.2013.CAM.XviD-2LOW+%5BP2PDL%5D","amp;tr":["udp%3A%2F%2Ftracker.openbittorrent.com%3A80","udp%3A%2F%2Fopen.demonii.com%3A1337","udp%3A%2F%2Ftracker.coppersurfer.tk%3A6969","udp%3A%2F%2Fexodus.desync.com%3A6969"],"infoHash":"6fdbb48b99acbbd6e5c0869a731a341261ab3a80","infoHashBuffer":{"type":"Buffer","data":[111,219,180,139,153,172,187,214,229,192,134,154,115,26,52,18,97,171,58,128]},"announce":[],"urlList":[]}}